<svg width="5056" height="3641" viewBox="0 0 5056 3641" fill="none" xmlns="http://www.w3.org/2000/svg">
<path d="M811.132 2624.82C728.449 2382.23 407.486 2147.11 257.34 2059.86C267.906 2047.19 290.264 2015.57 295.165 1990.52C301.292 1959.2 311.947 1988.78 330.593 1939.82C349.239 1890.85 362.025 1881.41 366.287 1856.06C370.549 1830.7 366.287 1826.73 345.243 1785.96C324.2 1745.2 334.855 1772.29 330.593 1740.98C326.331 1709.66 311.947 1701.95 311.947 1653.24C311.947 1604.52 301.558 1620.18 311.947 1594.83C322.335 1569.48 355.898 1583.15 408.108 1565.5C422.758 1551.83 439.273 1509.08 453.924 1473.79C468.575 1438.49 474.968 1464.09 495.745 1473.79C516.522 1483.48 529.308 1473.79 545.823 1464.09C562.338 1454.4 560.474 1446.7 581.517 1421.34C598.352 1401.06 630.264 1382.9 644.115 1376.36C651.13 1356.22 665.159 1308.15 665.159 1276.94V1245.87C674.215 1241.97 694.833 1231.85 704.848 1222.51C717.368 1210.82 719.499 1212.56 742.407 1191.19C765.315 1169.81 765.315 1156.14 742.407 1156.14C734.096 1157.73 713.905 1113.89 704.848 1091.77C709.732 1079.42 719.499 1052.4 719.499 1043.05V1006.02C706.891 992.349 678.371 960.336 665.159 941.645C675.174 941.645 687.445 900.055 692.329 879.26C679.099 865.589 652.639 830.445 652.639 799.227C652.639 760.205 656.635 779.84 652.639 764.182C648.643 748.523 646.246 742.806 625.469 705.773C604.692 668.739 598.299 662.774 598.299 627.729C598.299 592.683 598.299 594.423 571.129 575.036V463.935C571.129 401.549 579.386 411.243 598.299 393.596C617.211 375.949 648.377 360.539 692.329 348.857C736.281 337.175 759.189 323.505 779.966 311.823C800.743 300.142 790.355 276.778 807.136 208.427C820.561 153.747 818.235 174.045 815.394 191.029C823.119 199.479 846.506 224.135 878.258 255.154C917.948 293.928 907.559 300.142 924.074 300.142H1014.11H1072.44C1081.5 314.392 1106.33 339.015 1133.18 323.505C1145.7 323.505 1175 342.892 1185.39 360.539C1195.78 378.186 1220.82 383.902 1247.99 383.902C1275.16 383.902 1266.9 383.902 1383.84 360.539C1431.78 348.857 1404.88 323.505 1404.88 255.154C1396.57 226.919 1387.39 200.639 1383.84 191.029C1383.84 191.029 1421.93 196.099 1448.57 216.381C1481.86 241.733 1475.74 229.802 1494.65 239.744C1513.56 249.686 1544.73 276.778 1580.42 300.142C1608.98 318.832 1615.94 323.505 1615.85 323.505C1632.54 329.967 1671.79 339.015 1695.23 323.505C1724.53 304.118 1714.14 323.505 1722.4 300.142C1730.66 276.778 1749.57 290.448 1766.35 255.154C1783.13 219.861 1776.74 239.744 1795.65 239.744C1814.56 239.744 1841.47 231.791 1866.51 216.381C1891.55 200.971 1893.68 200.722 1900.07 191.029C1906.46 181.335 1895.81 152.007 1916.85 152.007H1987.71H2033.79C2056.7 152.007 2063.09 163.688 2069.22 152.007C2075.34 140.325 2090.26 107.019 2092.39 87.6327C2094.52 68.2459 2115.3 77.9393 2132.08 77.9393C2148.86 77.9393 2194.68 77.9393 2207.2 87.6327C2219.72 97.3261 2202.94 134.36 2219.72 163.688C2238.36 175.37 2238.63 163.688 2265.8 163.688C2292.97 163.688 2303.36 163.688 2320.14 152.007C2336.92 140.325 2332.66 128.643 2345.18 107.019C2355.2 89.7205 2368.89 80.4248 2374.48 77.9393C2396.77 80.5077 2443.85 86.042 2453.86 87.6327C2466.38 89.6211 2495.68 67.9974 2522.85 38.9172C2550.02 9.83704 2541.5 28.9752 2600.1 19.2818C2646.98 11.5271 2646.09 16.0506 2639.79 19.2818C2641.21 63.5234 2645.7 154.343 2652.31 163.688C2660.57 175.37 2669.09 187.052 2685.87 216.381C2702.65 245.709 2713.04 247.449 2729.56 276.778C2746.07 306.107 2752.73 286.471 2763.12 290.448C2773.51 294.425 2802.81 298.153 2836.11 300.142C2869.41 302.13 2877.93 309.835 2892.58 323.505C2907.23 337.175 2919.75 339.164 2932.27 342.892C2944.79 346.62 2957.31 352.834 3011.65 383.902C3065.99 414.971 3032.69 428.89 3030.56 446.288C3028.43 463.686 3084.9 465.923 3099.55 481.333C3114.2 496.743 3120.33 491.275 3120.33 522.344C3120.33 547.199 3128.68 583.404 3132.85 598.4C3138.44 591.937 3153.41 573.545 3168.54 551.673C3187.46 524.332 3206.1 500.969 3241.53 465.923C3276.96 430.878 3260.44 446.288 3281.22 465.923C3302 485.559 3333.7 500.969 3352.34 500.969C3370.99 500.969 3377.38 506.685 3385.9 522.344C3394.43 538.002 3421.33 539.991 3507.1 506.685C3509.24 495.004 3534.27 500.969 3550.79 500.969C3567.31 500.969 3605.13 506.685 3676.25 539.991C3747.37 573.296 3740.98 522.344 3762.02 506.685C3783.07 491.027 3797.45 467.912 3784.93 411.243C3757.76 393.596 3732.72 368.244 3753.5 352.834C3774.28 337.424 3784.93 352.834 3812.1 352.834C3833.84 352.834 3843.54 373.546 3845.67 383.902C3864.4 404.698 3909.44 442.808 3939.7 428.89C3954.35 428.89 3972.99 426.901 3991.91 411.243C4010.82 395.584 4004.43 337.175 4010.55 323.505C4016.68 309.835 4029.46 321.517 4069.15 323.505C4108.84 325.493 4104.58 335.187 4138.15 352.834C4171.71 370.481 4232.18 395.584 4263.34 411.243C4294.51 426.901 4282.25 428.89 4299.04 446.288C4315.82 463.686 4351.24 471.64 4415.97 500.969C4422.1 508.674 4426.36 520.355 4447.41 539.991C4468.45 559.626 4503.88 545.707 4532.91 539.991C4561.95 534.274 4566.47 561.366 4578.99 579.013C4591.51 596.66 4608.3 604.365 4625.08 621.763C4641.86 639.162 4656.24 633.445 4689.81 639.41C4723.37 645.375 4733.76 639.41 4789.96 664.762C4804.61 680.421 4817.13 703.784 4829.65 725.159C4842.17 746.535 4856.82 754.488 4875.74 769.898C4890.87 782.226 4930.87 788.125 4948.99 789.533C4948.99 833.112 4953.57 924.147 4971.9 939.657C4994.8 959.044 4994.8 994.337 5005.19 1000.05C5015.58 1005.77 5040.89 1021.43 5040.89 1033.36C5040.89 1045.29 5026.24 1060.45 5005.19 1078.1C4988.36 1092.22 4991.25 1089.12 4994.8 1085.8C4983.71 1081.25 4959 1072.13 4948.99 1072.13C4936.47 1072.13 4932.21 1076.11 4900.77 1085.8C4869.34 1095.5 4865.35 1101.46 4856.82 1109.42C4848.3 1117.37 4838.18 1130.79 4800.62 1179.51C4763.06 1228.22 4731.63 1269.23 4689.81 1341.31C4675.16 1384.31 4675.16 1349.02 4625.08 1356.97C4575 1364.92 4566.47 1380.33 4566.47 1395.99C4566.47 1408.52 4537.17 1423.25 4522.52 1429.05C4513.47 1442.72 4497.06 1474.33 4503.88 1491.43C4512.4 1512.81 4520.39 1518.77 4522.52 1540.15C4524.65 1561.53 4547.56 1583.15 4566.47 1620.18C4585.39 1657.22 4547.56 1653.24 4503.88 1680.58C4468.93 1702.45 4483.63 1684.56 4495.35 1672.87H4397.33C4355.77 1672.87 4380.55 1680.58 4357.64 1703.94C4334.73 1727.31 4324.07 1781.99 4338.72 1805.35C4353.38 1828.71 4311.55 1862.02 4324.07 1873.7C4336.59 1885.38 4324.07 1899.05 4324.07 1920.43C4324.07 1941.8 4311.55 1955.47 4296.9 1992.51C4282.25 2029.54 4252.95 2039.48 4242.56 2078.26C4242.56 2107.34 4263.34 2117.28 4276.13 2134.93C4288.91 2152.57 4276.13 2173.95 4276.13 2197.31C4276.13 2220.68 4276.13 2220.68 4252.95 2251.99C4229.78 2283.31 4225.78 2275.36 4211.13 2275.36C4196.48 2275.36 4171.44 2310.4 4179.97 2326.06C4188.49 2341.72 4196.48 2345.45 4211.13 2365.08C4225.78 2384.72 4227.91 2384.47 4242.56 2419.51C4254.28 2447.55 4269.82 2474.11 4276.13 2483.89C4275.42 2498.88 4274.42 2531.96 4276.13 2544.29C4278.26 2559.7 4296.9 2550.25 4311.55 2559.94C4326.21 2569.64 4370.16 2598.97 4397.33 2637.99C4370.16 2647.68 4363.76 2661.35 4338.72 2706.09C4313.69 2750.83 4326.21 2745.11 4296.9 2803.77C4278.58 2831.81 4253.04 2846.6 4242.56 2850.5C4223.03 2868.72 4177.3 2902.84 4150.66 2893.5C4124.03 2884.15 4120.03 2850.5 4121.36 2834.84V2803.77C4121.36 2784.38 4104.58 2745.11 4077.41 2706.09C4065.69 2685.81 4052.99 2687.37 4048.11 2690.68C4046.07 2698.47 4040.33 2715.59 4033.73 2721.75C4025.47 2729.45 3983.38 2733.43 3922.91 2745.11C3908.26 2746.85 3876.83 2764.75 3845.67 2784.14C3814.5 2803.52 3816.37 2813.46 3805.71 2834.84C3797.19 2851.94 3802.16 2874.44 3805.71 2883.55C3800.92 2894.66 3789.2 2920.34 3780.67 2934.26C3770.02 2951.66 3780.67 2967.56 3764.16 3004.6C3747.64 3041.63 3772.41 3066.98 3764.16 3098.05C3757.55 3122.91 3752.88 3157.79 3751.37 3172.12C3751.37 3200.79 3757.23 3267.86 3780.67 3306.83C3797.19 3326.47 3797.45 3316.53 3805.71 3349.58C3812.32 3376.03 3808.46 3368.39 3805.71 3361.26C3798.78 3375.6 3778.22 3420.62 3751.37 3486.04V3552.4C3751.37 3560.15 3743.02 3588.11 3738.85 3601.11C3725 3573.19 3694.74 3508.41 3684.51 3472.61C3680.25 3443.53 3678.38 3419.92 3671.99 3404.26C3665.6 3388.6 3646.95 3404.26 3642.96 3452.98C3638.96 3501.69 3640.82 3462.67 3613.65 3486.04C3586.48 3509.4 3590.48 3507.66 3584.35 3529.03C3578.23 3550.41 3571.83 3564.08 3540.4 3601.11C3523.62 3597.14 3519.62 3585.7 3500.71 3529.03C3500.71 3523.07 3563.31 3484.3 3571.83 3472.61C3580.36 3460.93 3555.05 3470.63 3540.4 3452.98C3528.68 3438.86 3521.67 3414.62 3519.62 3404.26C3513.32 3389.93 3500.71 3355.45 3500.71 3332.18C3500.71 3303.1 3513.23 3306.83 3519.62 3258.12C3524.74 3219.14 3509.15 3206.75 3500.71 3205.42C3490.94 3194.32 3465.55 3169.78 3442.11 3160.44C3412.81 3148.76 3387.77 3160.44 3369.12 3160.44C3350.48 3160.44 3346.21 3189.77 3310.52 3244.45C3295.87 3244.45 3262.57 3232.76 3193.58 3244.45C3124.59 3256.13 3158.15 3269.8 3162.15 3306.83C3166.15 3343.87 3193.58 3330.2 3193.58 3361.26V3388.6C3177.51 3387.94 3124.91 3383.88 3043.08 3372.95C3038.2 3365.16 3019.64 3349.58 2984.48 3349.58C2970.72 3355.92 2944.67 3381.48 2931.78 3395.72C2930.14 3399.83 2928.3 3402.6 2926.14 3404.26C2921.81 3407.62 2924.95 3403.26 2931.78 3395.72C2939.64 3375.94 2942.58 3325.15 2951.18 3217.11C2946.92 3201.45 2944.79 3189.77 2940.79 3160.44C2936.8 3131.11 2934.4 3137.07 2926.14 3123.4C2917.89 3109.73 2855.02 3125.39 2790.29 3189.77C2769.51 3232.76 2798.55 3219.09 2790.29 3232.76C2782.03 3246.44 2779.9 3258.12 2752.73 3269.8C2725.56 3281.48 2740.21 3258.12 2725.56 3232.76C2710.91 3207.41 2727.69 3187.78 2725.56 3172.12C2723.43 3156.46 2704.52 3172.12 2673.35 3172.12C2642.19 3172.12 2639.79 3219.09 2614.75 3258.12C2596.1 3283.47 2556.15 3263.83 2556.15 3258.12C2556.15 3252.4 2554.02 3234.5 2556.15 3219.09C2558.28 3203.68 2545.76 3205.42 2512.2 3205.42H2483.16C2471.97 3207.33 2452.96 3203.34 2466.38 3172.12C2483.16 3133.1 2483.16 3152.73 2466.38 3113.71C2433.08 3104.02 2420.3 3090.35 2420.3 3059.03C2445.34 3043.37 2443.47 3043.62 2449.6 3022C2455.73 3000.37 2451.73 2994.9 2420.3 2967.56H2353.44C2353.44 2961.68 2355.94 2946.79 2365.96 2934.26C2378.48 2918.6 2361.96 2916.86 2353.44 2905.18C2344.91 2893.5 2336.92 2899.21 2320.14 2883.55C2303.36 2867.9 2267.93 2883.55 2192.55 2858.2C2167.51 2856.21 2161.38 2860.19 2140.34 2873.86C2123.5 2884.8 2130.48 2884.88 2136.08 2883.55C2130.57 2889.44 2102.41 2890.66 2033.79 2848.51C2027.4 2813.46 2031.66 2811.48 1971.19 2780.41C1925.37 2749.34 1933.37 2795.82 1922.98 2811.48C1912.59 2827.13 1916.85 2827.13 1910.46 2848.51C1904.06 2869.88 1906.2 2887.53 1895.81 2883.55C1885.42 2879.58 1881.16 2873.86 1818.56 2811.48C1801.78 2795.82 1795.65 2811.48 1776.74 2811.48C1757.83 2811.48 1762.09 2819.18 1747.44 2827.13C1732.79 2835.09 1728.79 2840.8 1672.32 2780.41C1659.8 2776.68 1613.72 2780.41 1511.43 2719.76C1498.91 2717.77 1496.78 2729.7 1425.66 2749.09C1411.01 2747.1 1408.88 2737.41 1392.36 2710.07C1379.15 2688.2 1386.86 2667.15 1392.36 2659.36L1367.05 2624.82L1379.57 2542.3C1271.25 2505.51 1005.9 2470.52 811.132 2624.82Z" fill="#508211" stroke="#508211" stroke-width="30"/>
<path d="M300.493 2928.3C275.187 2918.85 204.598 2893 189.415 2895.49V2959.12V2970.8L93.5194 3022.5C77.5372 3033.52 45.5727 3058.39 45.5727 3069.72C45.5727 3083.89 22.9302 3109.74 20.2665 3123.9C18.1355 3135.24 36.2494 3169.39 45.5727 3185.05C24.5291 3185.88 0.608746 3197.37 73.2756 3236.74C164.109 3285.96 139.07 3236.74 151.59 3236.74C164.109 3236.74 212.057 3286.21 234.698 3286.21H285.309L411.571 3274.52C315.676 3267.56 466.071 3273.13 492.282 3267.56C525.046 3260.61 537.566 3255.63 557.81 3255.63H633.46C671.286 3255.63 668.888 3243.95 694.194 3236.74C719.499 3229.54 744.539 3222.83 782.364 3208.66C820.189 3194.49 835.372 3210.9 875.861 3208.66C916.35 3206.42 944.053 3192.01 944.053 3170.88C944.053 3153.98 935.529 3132.52 931.267 3123.9C945.562 3114.46 981.718 3090.4 1011.98 3069.72C1042.24 3049.04 1039.86 3042.21 1034.89 3041.39C1007.09 3034.34 947.462 3016.98 931.267 3003.85C911.022 2987.45 921.145 2970.8 903.564 2970.8C889.499 2970.8 852.242 2963.01 835.372 2959.12C827.825 2963.01 809.214 2973.63 795.15 2984.97C777.569 2999.13 729.355 2984.97 694.194 2984.97C659.032 2984.97 694.194 2951.91 694.194 2940.23C694.194 2930.88 643.583 2915.95 618.277 2909.66L537.566 2984.97C525.845 2980.24 500.38 2970.8 492.282 2970.8C484.184 2970.8 478.786 2942.46 477.099 2928.3H421.693C415.726 2928.3 397.187 2956.63 388.663 2970.8C367.708 2959.78 320.737 2935.85 300.493 2928.3Z" fill="#508211" stroke="#508211" stroke-width="30"/>
<path d="M300.48 2922.45C275.167 2914.73 204.558 2893.59 189.37 2895.62V2947.65V2957.2L93.4468 2999.48C77.46 3008.49 45.4863 3028.83 45.4863 3038.09C45.4863 3049.68 22.8373 3070.82 20.1728 3082.4C18.0412 3091.67 36.1603 3119.59 45.4863 3132.4C24.4367 3133.08 0.509373 3142.48 73.1972 3174.67C164.057 3214.91 139.011 3174.67 151.534 3174.67C164.057 3174.67 212.018 3215.12 234.667 3215.12H285.292L411.59 3205.57C315.668 3199.87 466.106 3204.43 492.325 3199.87C525.098 3194.18 537.621 3190.12 557.872 3190.12H633.544C671.38 3190.12 668.982 3180.57 694.295 3174.67C719.607 3168.78 744.654 3163.29 782.49 3151.71C820.326 3140.12 835.514 3153.54 876.014 3151.71C916.515 3149.88 944.226 3138.09 944.226 3120.81C944.226 3106.99 935.699 3089.45 931.436 3082.4C945.735 3074.68 981.902 3055 1012.17 3038.09C1042.44 3021.18 1040.06 3015.6 1035.09 3014.92C1007.29 3009.17 947.636 2994.97 931.436 2984.23C911.186 2970.82 921.311 2957.2 903.725 2957.2C889.656 2957.2 852.389 2950.84 835.514 2947.65C827.964 2950.84 809.348 2959.52 795.279 2968.79C777.694 2980.37 729.466 2968.79 694.295 2968.79C659.123 2968.79 694.295 2941.76 694.295 2932.2C694.295 2924.56 643.669 2912.35 618.356 2907.21L537.621 2968.79C525.898 2964.93 500.425 2957.2 492.325 2957.2C484.225 2957.2 478.824 2934.03 477.137 2922.45H421.715C415.747 2922.45 397.202 2945.62 388.675 2957.2C367.714 2948.19 320.73 2928.63 300.48 2922.45Z" fill="#76B527" stroke="#355709" stroke-width="40"/>
<path d="M273 2053.18L391.539 1790.79L370.761 1748.3V1694.14C370.761 1671.03 335.599 1658.19 323.878 1642.78C312.158 1627.38 323.878 1598.9 323.878 1591.19C323.878 1583.49 308.961 1586.06 370.761 1562.95C432.561 1539.83 458.932 1539.6 461.863 1519.06C464.793 1498.52 438.421 1483.11 461.863 1470.27C480.616 1460 514.783 1465.99 529.523 1470.27C541.155 1465.91 570.918 1448.98 596.917 1416.11C629.415 1375.02 591.323 1357.05 629.415 1346.78C667.507 1336.5 670.171 1326 708.53 1326L693.879 1292.62V1269.51C688.995 1270.44 682.158 1268.67 693.879 1254.1C705.599 1239.53 747.776 1211.92 767.399 1199.94V1176.83C761.628 1168.19 745.929 1147.83 729.307 1135.51C712.685 1092.37 708.53 1064.46 708.53 1055.9V1027.42C708.53 1019.72 705.599 1002.77 693.879 996.609C679.228 988.906 685.088 989.139 667.507 958.091V857.71V844.637V765.032C667.507 741.688 644.066 731.417 629.415 710.873C614.764 690.33 588.126 661.85 588.126 649.011C588.126 636.171 570.545 600.454 570.545 584.813C570.545 569.173 579.336 566.605 588.126 546.062C596.917 525.518 619.764 532.133 629.415 499.84C644.066 450.816 667.507 445.68 667.507 435.409C667.507 425.137 755.679 386.853 770.329 381.483C784.98 376.114 805.492 368.41 805.492 353.003C805.492 340.677 831.064 284.37 843.85 257.758C853.617 274.099 876.082 309.863 887.803 322.188C955.463 353.003 959.192 353.003 980.769 353.003H1055.35C1102.24 394.276 1143.44 406.306 1158.18 407.162V381.483L1196.27 430.273C1177.62 430.273 1155.03 431.3 1213.85 435.409C1272.67 439.518 1324.66 433.697 1343.31 430.273L1381.4 407.162C1379.45 406.228 1383.16 397.684 1413.63 370.978C1413.63 331.946 1392.15 306.781 1381.4 299.077C1374.57 295.576 1364.99 285.491 1381.4 273.165C1431.22 257.758 1450.13 275.966 1467.18 299.077C1480.82 317.566 1515.48 332.46 1531.11 337.596C1521.7 336.74 1512.62 338.623 1551.62 353.003C1646.18 370.978 1654.44 370.978 1672.02 370.978C1689.6 370.978 1739.68 322.188 1751.4 322.188C1827.85 322.188 1898.18 324.99 1898.18 299.077C1921.83 241.37 1941.42 216.671 1948.26 211.536L2003.93 226.943C2018.58 208.968 2051.08 198.696 2065.73 198.696C2080.38 198.696 2077.45 211.769 2103.82 198.696C2130.19 185.623 2145.11 180.488 2159.76 172.784C2174.41 165.08 2183.2 172.784 2197.85 172.784C2210.92 172.784 2214.67 156.621 2202.84 185.949L2218.37 226.943C2220.23 237.215 2227.53 257.758 2241.81 257.758C2259.65 257.758 2277.24 303.98 2280.17 257.758C2315.38 223.208 2327.71 214.046 2329.83 215.212L2350.49 172.784H2377.13H2494.6C2515.11 172.784 2518.04 154.809 2538.55 144.537C2554.96 136.32 2617.85 141.113 2647.24 144.537L2631.4 218.772C2639.61 224.92 2657.89 238.148 2665.35 241.883C2674.67 246.552 2686.13 257.758 2704.24 273.165C2722.35 288.572 2718.09 310.983 2774.3 367.71C2830.5 404.361 2806.26 366.309 2818.25 367.71C2830.24 369.111 2879.25 374.013 2903.76 392.455C2903.76 401.233 2961.83 426.771 2990.86 438.444C3004.45 454.629 3031.62 488.961 3031.62 496.805C3031.62 506.609 3070.51 532.055 3079.04 546.062C3087.56 560.068 3109.14 571.974 3129.65 610.492C3140.57 649.011 3142.17 661.15 3142.17 681.226C3142.17 701.302 3149.89 662.784 3196.24 619.597C3210.09 614.554 3214.98 601.154 3215.69 595.085V571.974C3222.08 573.53 3237.69 575.709 3248.99 571.974C3260.28 568.239 3267.72 543.805 3270.03 532.055V509.177L3329.96 546.062C3337.42 558.979 3352.34 586.868 3352.34 595.085C3369.83 591.661 3407.43 589.949 3417.87 610.492C3430.92 636.171 3436.52 619.597 3464.49 619.597C3492.46 619.597 3492.46 610.492 3506.31 595.085C3520.16 579.678 3528.15 571.974 3552.12 571.974C3576.1 571.974 3577.96 557.967 3605.67 546.062C3633.37 534.156 3622.18 546.062 3666.14 546.062H3693.84H3766.03C3780.15 546.062 3809.71 557.967 3829.16 546.062C3844.72 536.537 3835.64 517.504 3829.16 509.177L3783.61 430.273C3829.16 487 3808.06 430.273 3829.16 430.273C3850.26 430.273 3854.46 435.72 3853.93 438.444C3861.3 450.894 3880.46 478.036 3898.15 487H3917.33H4016.69C4049.72 487 4030.45 454.629 4016.69 438.444V392.455C4016.69 381.81 4036.93 380.705 4047.06 381.483C4066.32 385.141 4111.52 392.455 4138.16 392.455C4171.46 392.455 4165.6 417.667 4185.04 438.444C4200.6 455.065 4285.29 492.525 4325.69 509.177C4262.29 463.656 4349.56 522.717 4367.24 532.055C4384.93 541.393 4418.66 571.118 4433.31 584.813C4450.8 588.237 4493.51 595.085 4524.41 595.085C4555.31 595.085 4557.53 605.356 4554.77 610.492C4571.29 618.818 4612.63 638.179 4645.88 649.011C4687.43 662.55 4676.24 681.226 4701.02 681.226H4759.09L4825.15 717.643C4834.38 735.152 4862.76 778.385 4902.4 811.255C4932.77 830.864 4918.92 827.362 4935.43 857.71C4951.95 888.058 4949.28 891.093 4949.28 911.636V942.45V974.432H4935.43L5001.76 996.609V1027.19L5021.2 1047.5C5025.73 1060.42 5028.18 1087.33 5001.76 1091.62C4968.73 1096.99 4998.83 1099.79 4935.43 1091.62C4934.54 1094.58 4926.69 1104.18 4902.4 1118.93C4872.03 1137.38 4847.26 1179.4 4825.15 1199.94C4780.93 1258.53 4786.79 1282.35 4759.09 1295.18C4731.38 1308.02 4700.75 1320.13 4673.31 1326C4645.88 1331.87 4643.21 1329.97 4623.77 1344.21C4604.32 1358.45 4571.29 1406.3 4554.77 1416.11C4538.26 1425.91 4524.41 1429.18 4524.41 1449.72C4524.41 1506.69 4554.77 1509.72 4554.77 1542.4C4554.77 1575.08 4543.59 1646.75 4524.41 1654.92C4505.23 1663.09 4524.41 1671.03 4471.93 1671.03C4419.45 1671.03 4400.28 1681.3 4383.76 1694.14C4367.24 1706.98 4356.06 1750.17 4347.8 1768.84C4341.19 1783.78 4345.05 1821.45 4347.8 1838.41C4363.43 1852.96 4385.3 1888.23 4347.8 1912.88C4300.92 1943.69 4273.21 1944.16 4273.21 1970.31V2040.34C4273.21 2037.69 4275.98 2042.39 4287.06 2082.36C4300.92 2132.32 4300.92 2158.46 4287.06 2167.8C4273.21 2177.14 4297.99 2172.24 4256.7 2201.88C4215.41 2231.53 4198.89 2236.2 4138.16 2243.44L4195.79 2267.64C4195.82 2267.63 4195.88 2267.66 4195.96 2267.71L4195.79 2267.64C4195.39 2267.76 4198.18 2272.6 4212.48 2291.99C4231.92 2318.37 4256.7 2313.47 4256.7 2344.98C4269.91 2405.12 4282.45 2442.72 4287.06 2454C4284.45 2459.47 4279.29 2467.1 4272.92 2470.59C4298 2476.14 4331.46 2491.34 4347.8 2499.76L4375.5 2521.7L4392.02 2540.84V2589.4C4347.8 2627.92 4378.17 2632.82 4347.8 2659.43C4317.43 2686.05 4300.92 2695.85 4287.06 2712.66C4273.21 2729.47 4262.56 2744.17 4237.52 2753.75L4236.44 2754.16C4211.77 2763.59 4187.35 2772.92 4162.93 2775.46C4138.16 2778.02 4107.52 2816.54 4104.86 2775.46C4102.2 2734.37 4104.86 2693.52 4104.86 2676.48C4104.86 2659.43 4093.94 2632.59 4069.17 2627.92C4014.03 2627.92 4019.62 2659.43 3983.66 2659.43C3947.7 2659.43 3942.37 2676.48 3898.15 2676.48C3853.93 2676.48 3802.79 2707.76 3802.79 2741.61C3802.79 2768.69 3792.67 2786.82 3787.6 2792.5C3785.83 2815.14 3779.51 2868.13 3768.42 2898.95C3754.57 2937.47 3748.98 2944.94 3748.98 2966.65V3063.29C3749.07 3078.62 3753.08 3113.62 3768.42 3130.99C3783.77 3148.36 3797.73 3186.63 3802.79 3203.59L3817.97 3247.01C3807.94 3271.99 3783.98 3325.82 3768.42 3341.33C3748.98 3360.7 3771.09 3370.51 3732.46 3392.22C3693.84 3413.93 3693.84 3443.11 3693.84 3392.22V3321.95C3693.84 3307.48 3702.36 3281.1 3674.66 3283.43C3646.96 3285.77 3644.03 3290.43 3619.25 3341.33C3594.48 3392.22 3569.97 3363.27 3567.04 3392.22C3564.11 3421.16 3600.34 3469.49 3567.04 3474.39C3540.4 3478.31 3511.72 3463.11 3500.71 3455.01L3486.86 3392.22C3503.47 3389.73 3538.33 3380.4 3544.93 3363.04C3553.19 3341.33 3544.93 3341.33 3544.93 3321.95C3519.89 3283.43 3500.71 3275.96 3500.71 3247.01C3500.71 3218.07 3478.6 3208.5 3500.71 3189.12C3544.93 3130.99 3558.78 3121.19 3544.93 3106.71C3531.08 3092.24 3519.89 3063.29 3486.86 3063.29C3453.83 3063.29 3390.97 3070.3 3390.97 3080.1C3390.97 3089.91 3352.34 3082.44 3352.34 3106.71C3352.34 3130.99 3360.6 3106.71 3317.18 3106.71C3282.44 3106.71 3254.4 3122.9 3244.72 3130.99L3194.38 3148.03L3167.21 3203.59C3176.26 3204.37 3194.38 3208.82 3194.38 3220.4C3194.38 3234.87 3148.29 3247.01 3128.58 3247.01H3072.38C2979.14 3220.4 2949.04 3249.35 2903.76 3266.39C2858.57 3247.06 2870.94 3235.16 2903.55 3203.8L2903.76 3203.59C2936.52 3172.08 2963.96 3165.07 2963.96 3148.03V3080.1L2936.52 3031.78H2858.47C2833.97 3031.78 2808.13 3000.26 2799.87 3031.78C2793.26 3056.99 2787.88 3108.43 2786.02 3130.99L2750.32 3148.03C2748.99 3130.99 2743.13 3093.55 2730.35 3080.1C2717.56 3066.65 2664.82 3092.24 2640.04 3106.71C2620.06 3118 2578.08 3138.65 2569.99 3130.99C2559.86 3121.42 2526.57 3080.1 2510.05 3080.1C2493.53 3080.1 2433.87 3096.91 2433.87 3080.1C2433.87 3066.65 2469.92 3042.28 2487.94 3031.78C2490.43 3026.1 2491.08 3012.82 2473.82 3005.17C2452.25 2995.59 2415.75 2990.93 2415.75 2966.65C2415.75 2942.37 2418.42 2913.66 2433.87 2898.95C2446.23 2887.18 2426.94 2861.67 2415.75 2850.39H2361.68L2289.49 2792.5L2230.09 2775.46C2223.25 2772.03 2203.71 2765.18 2180.27 2765.18C2150.97 2765.18 2127.26 2772.89 2115.54 2782.69C2103.82 2792.5 2100.89 2814.44 2068.66 2811.87C2036.43 2809.31 2033.76 2817.71 2018.85 2765.18C1966.37 2700.52 1957.31 2708.46 1927.75 2708.46C1904.09 2708.46 1898.18 2746.28 1898.18 2765.18L1871.81 2749.54C1853.16 2730.71 1809.42 2696.13 1783.64 2708.46C1751.4 2723.86 1718.9 2721.3 1689.6 2708.46C1660.3 2695.62 1628.6 2672.51 1600.37 2672.51C1572.13 2672.51 1513.53 2708.69 1513.53 2672.51C1513.53 2636.32 1538.03 2620.92 1494.88 2631.19C1451.73 2641.46 1431.75 2662 1416.83 2654.3C1401.91 2646.59 1379.54 2628.85 1381.4 2587.53C1382.89 2554.48 1382.02 2522.43 1381.4 2510.53L1383.27 2490.42C1303.41 2460.87 1115.44 2431.57 925.628 2510.53C893.005 2524.1 860.327 2540.87 828.134 2561.39C749.547 2416.08 623.704 2292.91 506.082 2201.96C414.788 2131.38 328.447 2080.21 273 2053.18Z" fill="#76B527"/>
<path d="M391.539 1790.79L273 2053.18C328.447 2080.21 414.788 2131.38 506.082 2201.96M391.539 1790.79L370.761 1748.3C370.761 1737.95 370.761 1712.63 370.761 1694.14C370.761 1671.03 335.599 1658.19 323.878 1642.78C312.158 1627.38 323.878 1598.9 323.878 1591.19C323.878 1583.49 308.961 1586.06 370.761 1562.95C432.561 1539.83 458.933 1539.6 461.863 1519.06C464.793 1498.52 438.421 1483.11 461.863 1470.27C480.616 1460 514.783 1465.99 529.523 1470.27C541.155 1465.91 570.918 1448.98 596.917 1416.11C629.415 1375.02 591.323 1357.05 629.415 1346.78C667.507 1336.5 670.171 1326 708.53 1326M391.539 1790.79C414.98 1806.66 464.793 1842.52 476.514 1858.95C491.164 1879.5 506.082 1876.93 529.523 1874.36C552.964 1871.79 570.545 1854.28 570.545 1838.41C570.545 1822.54 582.266 1802.23 588.126 1779.12C593.987 1756 596.917 1717.49 614.764 1689.01C632.612 1660.53 649.926 1694.14 667.507 1660.76C685.088 1627.38 723.447 1642.78 746.888 1622.24M1383.27 2490.42L1416.83 2441.63C1432.01 2434.86 1463.34 2416.51 1467.18 2397.28C1471.97 2373.23 1467.44 2349.19 1494.88 2304.83C1522.32 2260.48 1527.11 2240.17 1550.02 2212.15C1572.93 2184.14 1581.99 2168.27 1600.37 2143.99C1615.07 2124.57 1637.04 2103.68 1646.18 2095.67C1655.42 2096.44 1671.12 2093.52 1660.04 2075.59M1383.27 2490.42C1303.41 2460.87 1115.44 2431.57 925.628 2510.53M1383.27 2490.42L1381.4 2510.53C1382.02 2522.43 1382.89 2554.48 1381.4 2587.53C1379.54 2628.85 1401.91 2646.59 1416.83 2654.3C1431.75 2662 1451.73 2641.46 1494.88 2631.19C1538.03 2620.92 1513.53 2636.32 1513.53 2672.51C1513.53 2708.69 1572.13 2672.51 1600.37 2672.51C1628.6 2672.51 1660.3 2695.62 1689.6 2708.46C1718.9 2721.3 1751.4 2723.86 1783.64 2708.46C1809.42 2696.13 1853.16 2730.71 1871.81 2749.54L1898.18 2765.18M1660.04 2075.59C1648.95 2057.66 1615.64 2038.55 1600.37 2031.24C1585.09 2017.85 1563.71 1987.07 1600.37 1971.01C1646.18 1950.93 1742.35 1950.93 1646.18 1918.72C1494.88 1850.32 1517.52 1853.35 1467.18 1822.07C1416.83 1790.79 1366.22 1822.07 1343.31 1822.07M1660.04 2075.59L1689.6 2053.18H1707.45H1733.82C1745.54 2045.86 1780.76 2019.19 1827.85 1971.01C1839.57 1962.14 1863.02 1950.93 1871.81 1918.72C1880.6 1886.5 1898.18 1918.72 1898.18 1858.95C1898.18 1799.19 1918.96 1838.41 1927.75 1822.07M1343.31 1822.07C1320.4 1822.07 1324.93 1814.13 1302.02 1854.28M1343.31 1822.07C1356.63 1807.75 1396.96 1777.06 1451.73 1768.84C1501.54 1768.84 1494.88 1748.3 1513.53 1706.98M1302.02 1854.28C1279.11 1894.44 1288.44 1918.72 1251.68 1918.72C1214.92 1918.72 1214.92 1930.85 1178.16 1950.93C1141.4 1971.01 1095.58 1986.88 1136.87 2031.24C1178.16 2075.59 1136.87 2115.98 1136.87 2143.99C1136.87 2166.4 1136.87 2198.77 1136.87 2212.15C1153.74 2221.65 1177.36 2242.22 1136.87 2248.57C1096.38 2254.92 1052.69 2251.22 1035.91 2248.57C1032.89 2253.94 1024.99 2268.69 1017.53 2284.76C1008.21 2304.83 1022.06 2328.88 980.769 2344.98C929.411 2406.05 922.609 2480.79 925.628 2510.53M1302.02 1854.28L1251.68 1838.41C1240.04 1838.41 1205.06 1838.41 1158.18 1838.41C1099.57 1838.41 1108.1 1838.41 980.769 1822.07C936.657 1822.07 925.628 1843.55 925.628 1854.28M925.628 2510.53C893.005 2524.1 860.327 2540.87 828.134 2561.39C749.547 2416.08 623.704 2292.91 506.082 2201.96M506.082 2201.96C511.942 2198.51 524.835 2186.85 529.523 2167.8C529.523 2134.93 513.895 2077.69 506.082 2053.18H529.523C531.476 2053.18 542.416 2053.18 570.545 2053.18C605.707 2053.18 611.834 2055.51 629.415 2075.59C643.48 2091.65 660.67 2112.94 667.507 2121.58C676.209 2121.58 696.596 2121.58 708.53 2121.58C720.463 2121.58 723.447 2104.3 723.447 2095.67C713.502 2096.44 696.596 2093.52 708.53 2075.59C723.447 2053.18 711.726 2031.24 746.888 2031.24C775.018 2031.24 797.678 2031.24 805.492 2031.24C813.039 2037.15 828.134 2045.43 828.134 2031.24C828.134 2013.49 828.134 1991.08 828.134 1971.01C828.134 1954.95 852.285 1929.45 864.361 1918.72C869.334 1928.36 883.913 1941.87 902.453 1918.72C920.993 1895.56 925.628 1866.11 925.628 1854.28M925.628 1854.28C930.69 1833.12 937.775 1788.45 925.628 1779.12C913.482 1769.78 895.35 1768.38 887.803 1768.84C879.989 1772.27 852.587 1772.95 805.492 1748.3C746.622 1717.49 758.609 1714.92 758.609 1694.14C758.609 1677.52 758.609 1671.81 758.609 1671.03L746.888 1622.24M708.53 1326C739.216 1326 762.516 1339.85 770.329 1346.78C769.264 1353.7 774.805 1363.4 805.492 1346.78C836.178 1330.15 857.524 1298.61 864.361 1284.91M708.53 1326L693.879 1292.62V1269.51C688.995 1270.44 682.158 1268.67 693.879 1254.1C705.599 1239.53 747.776 1211.92 767.399 1199.94V1176.83C761.628 1168.19 745.929 1147.83 729.307 1135.51C712.685 1092.37 708.53 1064.46 708.53 1055.9V1027.42C708.53 1019.72 705.599 1002.77 693.879 996.609C679.228 988.906 685.088 989.139 667.507 958.091C667.507 918.872 667.507 874.829 667.507 857.71C667.507 873.895 667.507 893.94 667.507 844.637C667.507 783.008 667.507 788.377 667.507 765.032C667.507 741.688 644.066 731.417 629.415 710.873C614.764 690.33 588.126 661.85 588.126 649.011C588.126 636.171 570.545 600.454 570.545 584.813C570.545 569.173 579.336 566.605 588.126 546.062C596.917 525.519 619.764 532.133 629.415 499.84C644.066 450.816 667.507 445.68 667.507 435.409C667.507 425.137 755.679 386.853 770.329 381.483C784.98 376.114 805.492 368.41 805.492 353.003C805.492 340.677 831.064 284.37 843.85 257.758C853.617 274.099 876.082 309.863 887.803 322.188C955.463 353.003 959.192 353.003 980.769 353.003C1002.35 353.003 1034.84 353.003 1055.35 353.003C1102.24 394.276 1143.44 406.306 1158.18 407.162V381.483L1196.27 430.273C1177.62 430.273 1155.03 431.3 1213.85 435.409C1272.67 439.518 1324.66 433.697 1343.31 430.273M864.361 1284.91H940.812C937.26 1284.06 935.218 1284.91 955.463 1295.18C980.769 1308.02 961.323 1292.38 955.463 1326C949.602 1359.62 979.171 1392.76 940.812 1416.11C902.453 1439.45 876.082 1431.75 864.361 1470.27M864.361 1284.91L955.463 1220.48C956.706 1209.36 963.508 1185.05 980.769 1176.83C1002.35 1166.56 999.149 1132.94 1017.53 1120.1C1035.91 1107.26 1017.53 1094.42 1017.53 1081.58C1017.53 1068.74 1023.92 1047.97 1002.35 1027.42C1017.53 986.338 1031.91 986.338 1055.35 996.609C1078.8 1006.88 1138.2 1032.56 1158.18 996.609C1178.16 960.659 1187.48 945.018 1196.27 927.043M864.361 1470.27C852.641 1508.79 823.073 1534.7 805.492 1562.95C787.911 1591.19 746.888 1601.7 746.888 1622.24M864.361 1470.27H940.812C956.262 1470.27 990.199 1470.27 1002.35 1470.27C1017.53 1470.27 1007.67 1470.27 1035.91 1470.27C1064.15 1470.27 1084.66 1488.24 1096.38 1503.65C1122.75 1552.67 1111.29 1562.95 1158.18 1562.95C1205.06 1562.95 1205.33 1537.27 1228.5 1542.4C1251.68 1547.54 1251.68 1539.6 1251.68 1591.19C1251.68 1642.78 1269.79 1688.77 1260.73 1706.98C1302.02 1642.78 1343.31 1583.49 1343.31 1562.95C1393.12 1532.13 1375.54 1532.13 1401.91 1542.4M1401.91 1542.4C1428.29 1552.67 1473.57 1562.95 1484.22 1552.67C1524.08 1525.78 1559.43 1519.06 1572.13 1519.06C1577.01 1513.14 1583.85 1511.59 1572.13 1552.67C1557.48 1604.03 1542.83 1624.81 1531.11 1642.78C1519.39 1660.76 1532.17 1665.66 1513.53 1706.98M1401.91 1542.4C1409.73 1518.36 1420.67 1470.27 1401.91 1470.27M1513.53 1706.98L1531.11 1748.3H1600.37C1611.02 1750.09 1635.1 1749 1646.18 1730.33C1657.26 1711.65 1679.75 1695 1689.6 1689.01C1667.23 1692.43 1639.47 1693.63 1707.45 1671.03C1792.43 1642.78 1804.41 1622.24 1827.85 1622.24C1851.3 1622.24 1874.47 1591.19 1898.18 1591.19C1917.14 1591.19 1943.37 1591.19 1954.12 1591.19C1954.12 1602.4 1954.12 1628.4 1954.12 1642.78M1954.12 1642.78C1954.12 1657.16 1954.12 1683.01 1954.12 1694.14L2036.43 1730.33C2008.99 1749.39 1954.12 1790.97 1954.12 1804.79C1954.12 1822.07 1936.54 1805.73 1927.75 1822.07M1954.12 1642.78C1974.63 1635.94 2015.65 1619.11 2015.65 1606.6C2015.65 1590.96 2036.43 1552.67 2065.73 1552.67C2089.17 1552.67 2085.26 1545.83 2080.38 1542.4C2081.36 1529.49 2082.73 1494.41 2080.38 1457.43C2078.04 1420.45 2095.03 1414.48 2103.82 1416.11C2110.66 1401.56 2124.33 1357 2124.33 1295.18C2120.86 1292.19 2118.74 1288.7 2117.57 1284.91M1927.75 1822.07C1948.84 1835.14 1987.33 1862.38 2003.93 1874.36C2005.97 1880.27 2015.33 1894.76 2036.43 1905.41M2036.43 1905.41C2062.8 1950.93 2027.64 1946.26 2051.08 1974.74C2074.52 2003.22 2077.45 2031.24 2097.96 2031.24C2114.37 2031.24 2140.14 2031.24 2150.97 2031.24M2036.43 1905.41C2036.43 1905.41 2039.36 1905.41 2051.08 1905.41C2065.73 1905.41 2090.07 1918.72 2103.82 1918.72C2117.57 1918.72 2119.81 1920.35 2142.98 1912.88C2166.16 1905.41 2169.62 1898.64 2180.27 1889.3C2190.93 1879.96 2210.37 1879.5 2230.09 1858.95M2150.97 2031.24C2152.93 2048.35 2155.66 2085.21 2150.97 2095.67C2150.97 2116.4 2170.51 2152.39 2180.27 2167.8C2150.97 2234.8 2133.12 2221.26 2133.12 2263.05C2133.12 2304.83 2115.28 2309.97 2133.12 2327.48C2147.4 2341.48 2150.97 2365.84 2150.97 2376.27C2159.76 2382.49 2161.47 2395.41 2097.96 2397.28C2018.58 2399.61 2036.16 2418.29 2003.93 2397.28C1978.14 2380.47 1922.68 2390.27 1898.18 2397.28C1903.06 2392.06 1909.9 2388.83 1898.18 2417.59C1883.53 2453.54 1827.85 2445.83 1827.85 2461.24C1827.85 2476.65 1827.85 2471.51 1819.06 2523.1C1810.27 2574.69 1786.83 2559.29 1819.06 2600.37C1851.3 2641.46 1845.43 2654.53 1871.81 2672.51C1898.18 2690.48 1898.18 2687.91 1898.18 2708.46C1898.18 2724.89 1898.18 2753.12 1898.18 2765.18M2150.97 2031.24C2163.49 2033.1 2192.69 2037.54 2209.31 2040.34C2230.09 2043.84 2237.81 2045.01 2259.65 2053.18C2281.5 2061.35 2291.35 2054.11 2313.46 2082.36C2377.13 2143.99 2416.02 2167.8 2433.87 2167.8C2451.71 2167.8 2457.84 2177.14 2473.82 2177.14C2489.81 2177.14 2538.02 2149.59 2569.99 2167.8C2594.93 2182.01 2603 2198.07 2614.84 2201.88M1898.18 2765.18C1898.18 2746.28 1904.09 2708.46 1927.75 2708.46C1957.31 2708.46 1966.37 2700.52 2018.85 2765.18C2033.76 2817.71 2036.43 2809.31 2068.66 2811.87C2100.89 2814.44 2103.82 2792.5 2115.54 2782.69C2127.26 2772.89 2150.97 2765.18 2180.27 2765.18C2203.71 2765.18 2223.25 2772.03 2230.09 2775.46L2289.49 2792.5L2361.68 2850.39M1196.27 927.043C1205.06 909.068 1196.27 965.795 1196.27 996.609C1196.27 1027.42 1199.47 996.376 1158.18 1027.42C1116.89 1058.47 1055.35 1063.61 1055.35 1081.58C1055.35 1095.96 1082.7 1137.38 1096.38 1156.29C1094.6 1163.13 1095.63 1176.83 1113.96 1176.83C1136.87 1269.51 1160.04 1284.91 1178.16 1284.91C1196.27 1284.91 1205.33 1284.91 1228.5 1284.91C1251.68 1326 1274.85 1357.05 1251.68 1372.45C1228.5 1387.86 1311.08 1385.29 1343.31 1400.7C1343.31 1416.11 1328.93 1439.45 1343.31 1449.72C1357.7 1460 1378.47 1470.27 1401.91 1470.27M1196.27 927.043C1196.27 915.06 1199.79 881.801 1213.85 844.637C1213.85 816.157 1251.68 824.094 1251.68 811.255C1251.68 798.415 1278.58 765.032 1302.02 741.688C1325.46 718.344 1302.02 726.281 1313.74 690.33C1323.12 661.57 1317.65 650.8 1313.74 649.011V595.085C1309.84 585.592 1306.71 557.36 1325.46 520.383C1344.22 483.405 1345.18 504.975 1343.31 520.383V430.273M1401.91 1470.27L1484.22 1416.11C1493.55 1396.34 1515.98 1350.65 1531.11 1326C1572.13 1256.67 1595.84 1248.73 1613.42 1212.78C1631 1176.83 1632.33 1171.93 1646.18 1156.29C1660.04 1140.64 1689.6 1140.64 1689.6 1120.1C1689.6 1099.56 1722.1 1081.58 1727.96 1068.74C1772.5 1035.69 1795.36 1006.88 1801.22 996.609C1792.34 985.404 1779.91 959.398 1801.22 945.018C1822.53 930.638 1827.85 891.093 1827.85 873.117L1871.81 690.33C1871.81 700.524 1871.81 706.531 1871.81 649.011C1871.81 577.11 1898.18 558.901 1898.18 546.062C1898.18 533.222 1898.18 525.752 1898.18 499.84C1898.18 473.927 1897.91 448.248 1912.83 430.273C1927.75 412.298 1897.91 399.692 1912.83 381.483C1927.75 363.275 1954.12 342.732 1954.12 322.188C1954.12 301.645 1962.91 296.276 1983.42 273.165C2003.93 250.054 1989.28 244.918 2003.93 226.943M2003.93 226.943C2018.58 208.968 2051.08 198.696 2065.73 198.696C2080.38 198.696 2077.45 211.769 2103.82 198.696C2130.19 185.623 2145.11 180.488 2159.76 172.784C2174.41 165.08 2183.2 172.784 2197.85 172.784M2003.93 226.943L1948.26 211.536C1941.42 216.671 1921.83 241.37 1898.18 299.077C1898.18 324.99 1827.85 322.188 1751.4 322.188C1739.68 322.188 1689.6 370.978 1672.02 370.978C1654.44 370.978 1646.18 370.978 1551.62 353.003C1512.62 338.623 1521.7 336.74 1531.11 337.596C1515.48 332.46 1480.82 317.566 1467.18 299.077C1450.13 275.966 1431.22 257.758 1381.4 273.165C1364.99 285.491 1374.57 295.576 1381.4 299.077C1392.15 306.781 1413.63 331.946 1413.63 370.978C1383.16 397.684 1379.45 406.228 1381.4 407.162L1343.31 430.273M2197.85 172.784C2212.51 172.784 2215.44 152.474 2197.85 198.696C2180.27 244.918 2159.76 257.524 2159.76 273.165C2159.76 288.806 2103.82 317.053 2103.82 337.596C2086.24 407.162 2057.21 417.434 2036.43 430.273C2010.43 454.925 2025.6 517.737 2036.43 546.062C2036.43 570.9 2022.58 616.484 2015.65 636.171L2036.43 690.33C2033.41 704.026 2025.03 733.471 2015.65 741.688C2003.93 751.96 2003.93 749.625 2003.93 783.008C2036.43 852.341 2103.82 875.685 2103.82 891.092C2103.82 906.5 2112.35 857.477 2124.33 927.043C2133.92 982.696 2140.23 1036.14 2142.18 1055.9C2124.33 1176.83 2124.33 1220.25 2124.33 1235.89C2124.33 1248.49 2112.76 1269.26 2117.57 1284.91M2197.85 172.784L2218.37 226.943C2220.23 237.215 2227.53 257.758 2241.81 257.758C2259.65 257.758 2277.24 303.98 2280.17 257.758C2338.98 200.05 2333.97 213.17 2324.12 226.943L2350.49 172.784C2345.69 172.784 2344.31 172.784 2377.13 172.784C2418.15 172.784 2474.09 172.784 2494.6 172.784C2515.11 172.784 2518.04 154.809 2538.55 144.537C2554.96 136.32 2617.85 141.113 2647.24 144.537L2631.4 218.772M2635.51 487C2641.38 474.161 2670.68 435.409 2670.68 381.483C2670.68 355.804 2658.96 345.299 2647.24 322.188C2635.51 299.077 2647.24 299.077 2647.24 286.238C2647.24 275.966 2635.51 242.428 2629.65 226.943L2631.4 218.772M2635.51 487C2629.65 499.84 2591.3 530.654 2564.92 546.062C2538.55 561.469 2529.76 595.085 2512.18 595.085C2498.12 595.085 2494.6 631.035 2494.6 649.011L2582.77 741.688C2588.72 743.322 2597.05 748.691 2582.77 757.095C2512.18 757.095 2500.73 757.329 2479.95 770.168C2459.17 783.008 2430.14 731.417 2462.37 811.255C2494.6 891.093 2512.18 909.068 2512.18 927.043C2512.18 941.423 2512.18 979.412 2512.18 996.609C2518.04 1004.24 2528 1023.13 2520.97 1037.7C2512.18 1055.9 2529.76 1073.88 2520.97 1096.99C2512.18 1120.1 2520.97 1135.74 2520.97 1156.29C2520.97 1172.72 2519.02 1192.24 2518.04 1199.94C2505.43 1206.79 2476.65 1220.48 2462.37 1220.48C2448.09 1220.48 2399.59 1230.75 2377.13 1235.89C2377.13 1224.84 2377.13 1211.99 2377.13 1248.96C2377.13 1327.21 2377.13 1382.73 2377.13 1400.7M2635.51 487C2639.42 498.128 2648.99 520.383 2656.03 520.383C2664.82 520.383 2686.13 546.062 2686.13 584.813C2686.13 623.565 2676.27 636.171 2686.13 649.011C2695.98 661.85 2698.91 676.557 2704.24 710.873M2377.13 1400.7C2368.25 1420.39 2350.49 1451.03 2350.49 1416.11C2329.39 1360.64 2281.14 1332.93 2259.65 1326L2230.09 1308.02L2197.85 1295.18L2117.57 1284.91M2377.13 1400.7C2381.03 1419.61 2391.03 1460 2399.77 1470.27M2230.09 1858.95C2245.86 1842.52 2256.37 1816 2259.65 1804.79C2263.47 1799.66 2271.48 1785.28 2272.97 1768.84C2274.84 1748.3 2272.97 1730.33 2259.65 1730.33C2246.34 1730.33 2209.57 1738.5 2180.27 1730.33C2164.29 1694.14 2181.61 1694.14 2197.85 1694.14C2214.1 1694.14 2217.83 1719.82 2259.65 1689.01C2321.19 1606.6 2324.92 1600.3 2323.05 1581.62C2321.19 1562.95 2320.65 1552.67 2335.57 1552.67C2350.49 1552.67 2381.66 1562.95 2388.85 1552.67C2399.77 1503.42 2410.69 1483.11 2399.77 1470.27M2230.09 1858.95V1874.36C2244.38 1879.34 2276.28 1889.3 2289.49 1889.3C2306 1889.3 2350.49 1935.06 2361.68 1943.69C2370.63 1950.6 2375.71 1929.92 2377.13 1918.72C2388.67 1897.24 2412.56 1851.11 2415.75 1838.41C2419.75 1822.54 2459.7 1787.52 2473.82 1768.84C2487.94 1750.17 2527.9 1730.33 2569.99 1706.98C2569.99 1693.21 2593.96 1694.14 2605.95 1694.14C2617.93 1694.14 2656.03 1706.98 2676.27 1706.98C2696.52 1706.98 2698.11 1694.14 2704.24 1689.01C2709.14 1684.9 2715.52 1675.31 2718.09 1671.03C2728.84 1671.03 2755.12 1665.38 2774.3 1642.78C2798.27 1614.54 2806.26 1642.78 2818.25 1642.78M2399.77 1470.27C2411.14 1478.91 2436.64 1496.18 2447.72 1496.18M2676.27 1996.45C2670.41 2018.16 2660.02 2022.83 2656.03 2031.24C2652.83 2037.96 2644.04 2068.12 2640.04 2082.36C2641.38 2098.78 2646.44 2140.72 2656.03 2177.14C2668.01 2222.66 2646.17 2196.51 2626.19 2201.88C2621.8 2203.06 2618.17 2202.96 2614.84 2201.88M2676.27 1996.45C2676.27 1943.04 2676.27 1902.76 2676.27 1889.3C2674.23 1877.01 2673.34 1851.02 2686.13 1845.41C2702.11 1838.41 2702.38 1872.03 2750.32 1838.41C2788.68 1811.52 2803.6 1793.28 2806.26 1787.52C2803.6 1770.48 2799.87 1735.18 2806.26 1730.33C2818.25 1689.01 2830.24 1642.78 2818.25 1642.78M2676.27 1996.45C2685.59 1981.82 2709.46 1950.79 2730.35 1943.69C2756.45 1934.82 2806.26 1918.72 2833.97 1912.88C2849.68 1912.88 2858.47 1912.88 2858.47 1928.75C2858.47 1944.63 2888.57 1961.2 2903.76 1943.69C2918.94 1926.19 2917.34 1928.75 2936.52 1928.75C2955.7 1928.75 2948.51 1943.69 2963.96 1943.69C2979.41 1943.69 2996.72 1952.56 3012.17 1952.56C3027.62 1952.56 3031.62 1943.69 3045.21 1928.75C3058.79 1913.81 3066.52 1943.69 3072.38 1943.69C3078.24 1943.69 3107.27 1943.69 3128.58 1952.56C3149.89 1961.44 3149.89 1943.69 3167.21 1952.56C3184.52 1961.44 3213.82 1979.88 3244.72 1996.45C3269.44 2009.71 3274.38 2025.17 3273.76 2031.24M2818.25 1642.78C2829.71 1635.86 2853.79 1618.93 2858.47 1606.6C2914.41 1562.95 2934.39 1552.67 2948.51 1552.67C2962.63 1552.67 2970.62 1555.48 2978.61 1542.4M2978.61 1542.4C2978.61 1470.27 2956.5 1473.3 2936.52 1480.31M2978.61 1542.4L2985.27 1589.32C2965.2 1591.89 2939.4 1595.49 2996.72 1589.32C3068.38 1581.62 3081.97 1562.95 3089.69 1552.67C3097.42 1542.4 3097.42 1533.06 3118.73 1506.69C3140.04 1480.31 3047.34 1503.18 3149.89 1480.31C3252.45 1457.43 3293.47 1449.72 3303.06 1449.72C3312.65 1449.72 3324.1 1460.23 3329.96 1470.27C3335.82 1480.31 3333.96 1486.38 3349.41 1519.52C3341.69 1575.55 3349.41 1586.52 3349.41 1606.6C3349.41 1626.68 3363 1614.54 3370.72 1642.78C3378.45 1671.03 3370.72 1681.3 3370.72 1694.14M2936.52 1480.31C2916.54 1487.31 2918.68 1494.55 2888.57 1496.18C2848.51 1496.18 2795.7 1478.91 2774.3 1470.27M2936.52 1480.31L3031.62 1470.27C3021.94 1474.55 3011.11 1480.54 3045.21 1470.27C3087.83 1457.43 3093.42 1453.46 3118.73 1434.78C3145.9 1376.89 3149.89 1343.97 3149.89 1326M2774.3 1470.27C2763.73 1481.24 2740.15 1503.88 2730.35 1506.69C2720.54 1509.49 2656.83 1454 2626.19 1425.91C2590.76 1427.31 2517.51 1432.08 2507.92 1439.92C2473.82 1470.27 2461.57 1496.18 2447.72 1496.18M2774.3 1470.27L2750.32 1457.43H2818.25C2825.71 1462.8 2850.22 1468.77 2888.57 1449.72C2910.95 1400.7 2882.18 1416.58 2858.47 1400.7C2834.77 1384.83 2806.26 1362.42 2806.26 1344.21C2806.26 1326 2828.37 1305.46 2858.47 1295.18M2447.72 1496.18V1439.92C2447.72 1453.07 2447.72 1468.68 2447.72 1425.91C2447.72 1372.45 2462.37 1343.97 2462.37 1326C2462.37 1308.02 2451.98 1300.32 2479.95 1284.91C2502.33 1272.59 2533.67 1279.78 2546.54 1284.91C2559.6 1290.98 2589.75 1296.4 2605.95 1269.51M2605.95 1269.51C2605.95 1120.1 2585.7 1081.58 2605.95 1068.74C2626.19 1055.9 2653.89 1012.02 2640.04 996.609M2605.95 1269.51H2656.03L2750.32 1220.48M2640.04 996.609C2626.19 981.202 2605.95 962.994 2605.95 927.043C2605.95 898.283 2628.68 868.837 2640.04 857.71C2638.62 860.2 2639.83 874.471 2656.03 911.636C2676.27 958.091 2685.86 996.609 2718.09 996.609C2743.88 996.609 2787.62 996.609 2806.26 996.609C2814.26 994.119 2827.84 982.929 2818.25 958.091C2808.66 933.253 2768.97 903.076 2750.32 891.092C2756.98 890.237 2766.31 885.443 2750.32 873.117C2730.35 857.71 2713.03 859.111 2704.24 827.362C2695.45 795.614 2704.24 772.503 2704.24 757.095M2640.04 996.609L2665.35 1037.7C2662.24 1048.04 2657.89 1073.32 2665.35 1091.62C2674.67 1114.5 2676.27 1110.3 2676.27 1118.93C2676.27 1125.84 2682.84 1156.83 2686.13 1171.46L2750.32 1220.48M2704.24 757.095C2704.24 741.688 2709.57 745.19 2704.24 710.873M2704.24 757.095C2727.59 780.518 2774.3 830.63 2774.3 843.703C2774.3 860.044 2795.34 857.71 2818.25 873.117C2836.58 885.443 2852.7 903.932 2858.47 911.636C2863.89 916.771 2897.95 944.365 2990.86 1013.65C3014.04 1039.33 3018.04 1015.28 3031.62 1013.65C3045.21 1012.02 3070.51 1015.28 3087.83 1027.19M2704.24 710.873C2727.59 718.344 2777.76 733.284 2791.61 733.284C2808.93 733.284 2858.47 741.688 2874.72 741.688C2887.72 741.688 2899.5 736.085 2903.76 733.284C2938.21 741.221 3012.01 759.71 3031.62 770.168C3056.13 783.241 3054.53 770.168 3079.04 773.203C3103.54 776.238 3118.73 770.168 3129.65 770.168C3138.38 770.168 3154.42 797.559 3161.35 811.255C3164.28 813.978 3171.9 821.012 3178.93 827.362C3185.96 833.712 3206.36 806.196 3215.69 791.645C3226.79 794.213 3253.19 804.951 3270.03 827.362C3270.03 843.47 3270.03 873.117 3303.06 880.821M2858.47 1295.18C2816.71 1258.21 2768.97 1229.98 2750.32 1220.48M2858.47 1295.18V1248.96C2859.27 1249.74 2863.64 1248.22 2874.72 1235.89C2915 1207.13 2940.7 1199.94 2948.51 1199.94C2979.5 1176.28 3047.28 1125.24 3070.51 1110.3C3093.74 1095.36 3105.94 1076.37 3109.14 1068.74M3109.14 1068.74L3101.41 1047.5C3102.65 1044.7 3101.68 1036.72 3087.83 1027.19M3109.14 1068.74C3109.14 1076.37 3111.05 1092.7 3118.73 1096.99C3128.32 1102.36 3169.34 1110.3 3196.24 1118.93C3223.15 1127.57 3206.1 1144.38 3196.24 1156.29C3186.39 1168.19 3161.61 1185 3142.17 1199.94C3122.72 1214.88 3118.73 1220.48 3142.17 1248.96C3160.92 1271.75 3149.98 1275.89 3142.17 1275.11C3144.74 1286.08 3149.89 1311.62 3149.89 1326M3087.83 1027.19C3091.73 1020.81 3101.46 1005.76 3109.14 996.609C3118.73 985.171 3121.12 978.868 3142.17 974.432C3175.46 996.609 3161.61 1013.65 3178.93 1013.65C3196.24 1013.65 3205.3 1008.05 3215.69 996.609C3226.08 985.171 3247.39 974.432 3270.03 974.432C3303.06 958.091 3315.31 942.451 3317.18 927.043M3149.89 1326L3161.35 1386.23C3171.29 1381.56 3196.08 1372.22 3215.69 1372.22C3240.2 1372.22 3263.64 1400.23 3317.18 1372.22C3370.72 1344.21 3429.59 1341.17 3436.52 1326C3443.44 1310.83 3462.62 1315.26 3464.49 1295.18M3370.72 1694.14C3370.72 1768.84 3356.51 1812.73 3349.41 1825.34C3349.41 1827.52 3349.41 1834.58 3349.41 1845.41C3349.41 1858.95 3355.27 1852.18 3349.41 1874.36C3343.55 1896.54 3349.41 1924.55 3349.41 1943.69C3349.41 1962.84 3345.41 1980.81 3329.96 1996.45C3299.06 2031.56 3279.62 2034.27 3273.76 2031.24M3370.72 1694.14L3390.97 1671.03C3398.51 1665.66 3418.19 1654.92 3436.52 1654.92C3459.42 1654.92 3464.49 1653.29 3492.46 1654.92C3520.43 1656.56 3538.01 1642.78 3552.12 1606.6C3566.24 1570.42 3569.71 1581.15 3583.82 1575.08C3597.94 1569.02 3643.23 1589.32 3666.14 1589.32C3689.04 1589.32 3666.13 1565.75 3718.61 1519.52C3739.66 1496.65 3748.45 1480.31 3766.03 1457.43C3783.61 1434.55 3783.61 1434.78 3783.61 1425.91C3783.61 1418.82 3771.89 1387.16 3766.03 1372.22L3802.79 1335.34C3797.64 1334.58 3790.98 1333.41 3783.61 1331.87M3273.76 2031.24C3288.23 2038.55 3317.18 2059.02 3317.18 2082.36C3317.18 2105.7 3325.7 2107.65 3329.96 2105.7L3352.34 2267.71C3349.41 2167.8 3374.77 2323.69 3390.97 2344.98C3411.21 2371.6 3390.97 2393.54 3406.95 2393.54C3422.93 2393.54 3522.82 2376.5 3646.96 2344.98C3679.99 2344.98 3691.97 2344.98 3693.84 2344.98C3693.84 2355.49 3693.84 2379.91 3693.84 2393.54C3693.84 2410.58 3718.61 2434.63 3732.46 2454C3746.32 2473.38 3783.61 2449.1 3802.79 2434.63C3821.97 2420.15 3837.42 2395.88 3853.93 2376.5C3870.45 2357.12 3886.96 2352.22 3917.33 2318.37C3947.7 2284.52 3917.33 2291.99 3947.7 2267.71C3978.06 2243.44 4016.69 2243.44 4044.39 2243.44C4072.1 2243.44 4077.42 2250.67 4138.16 2243.44M3317.18 927.043C3319.04 911.636 3336.09 888.524 3303.06 880.821M3317.18 927.043C3313.85 934.124 3309.18 950.247 3317.18 958.091C3327.17 967.896 3303.06 983.77 3291.07 996.609C3279.09 1009.45 3270.03 1013.65 3270.03 1027.19C3270.03 1040.73 3270.03 1047.5 3270.03 1058.94C3270.03 1070.38 3292.67 1068.74 3317.18 1083.45C3341.69 1098.16 3349.41 1096.99 3390.97 1118.93C3432.52 1140.88 3404.82 1118.93 3436.52 1137.38C3468.22 1155.82 3457.56 1161.89 3464.49 1171.46C3471.41 1181.03 3476.74 1220.48 3473.28 1235.89C3469.81 1251.3 3466.35 1275.11 3464.49 1295.18M3303.06 880.821L3352.34 857.71C3357.05 848.761 3366.46 826.942 3366.46 811.255C3366.46 791.645 3366.46 776.238 3366.46 773.203C3366.46 770.775 3392.03 745.579 3404.82 733.284M3404.82 733.284L3390.97 681.226C3378.09 675.156 3352.34 660.216 3352.34 649.011C3352.34 635.004 3352.34 605.356 3352.34 595.085M3404.82 733.284L3417.87 717.643C3433.41 715.387 3466.24 715.356 3473.28 733.284C3482.07 755.695 3473.28 791.645 3492.46 827.362C3511.64 863.079 3533.74 827.362 3605.67 827.362C3623.14 814.289 3653.26 821.915 3666.14 827.362C3670.75 832.809 3682.76 846.505 3693.84 857.71M3352.34 595.085C3352.34 586.868 3337.42 558.979 3329.96 546.062L3270.03 509.177V532.055C3267.72 543.805 3260.28 568.239 3248.99 571.974C3237.69 575.709 3222.08 573.53 3215.69 571.974V595.085C3214.98 601.154 3210.09 614.554 3196.24 619.597C3149.89 662.784 3142.17 701.302 3142.17 681.226C3142.17 661.15 3140.57 649.011 3129.65 610.492C3109.14 571.974 3087.56 560.068 3079.04 546.062C3070.51 532.055 3031.62 506.609 3031.62 496.805C3031.62 488.961 3004.45 454.629 2990.86 438.444C2961.83 426.771 2903.76 401.233 2903.76 392.455C2879.25 374.013 2830.24 369.111 2818.25 367.71C2806.26 366.309 2830.5 404.361 2774.3 367.71C2718.09 310.983 2722.35 288.572 2704.24 273.165C2686.13 257.758 2674.67 246.552 2665.35 241.883C2657.89 238.148 2639.61 224.92 2631.4 218.772M3352.34 595.085C3369.83 591.661 3407.43 589.949 3417.87 610.492C3430.92 636.171 3436.52 619.597 3464.49 619.597C3492.46 619.597 3492.46 610.492 3506.31 595.085C3520.16 579.678 3528.15 571.974 3552.12 571.974C3576.1 571.974 3577.96 557.967 3605.67 546.062C3633.37 534.156 3622.18 546.062 3666.14 546.062C3710.09 546.062 3679.99 546.062 3693.84 546.062C3707.69 546.062 3751.91 546.062 3766.03 546.062C3780.15 546.062 3809.71 557.967 3829.16 546.062C3844.72 536.537 3835.64 517.504 3829.16 509.177L3783.61 430.273C3829.16 487 3808.06 430.273 3829.16 430.273C3850.26 430.273 3854.46 435.72 3853.93 438.444C3861.3 450.894 3880.46 478.036 3898.15 487M3464.49 1295.18L3552.12 1258.53M3552.12 1258.53L3666.14 1275.11C3676.61 1279.93 3701.78 1293.22 3718.61 1307.79C3731.33 1318.79 3760.85 1327.12 3783.61 1331.87M3552.12 1258.53L3583.82 1220.48C3592.08 1223.13 3611.31 1222.72 3622.18 1199.94C3635.77 1171.46 3660.54 1175.19 3679.99 1156.29C3695.54 1141.16 3743.83 1101.43 3766.03 1083.45H3783.61C3790 1085.63 3802.79 1085.74 3802.79 1068.74C3802.79 1047.5 3801.19 1013.65 3783.61 1013.65C3769.54 1013.65 3756.61 1002.29 3751.91 996.609C3740.81 989.762 3718.61 972.471 3718.61 958.091C3702.1 911.636 3707.69 871.717 3693.84 857.71M3693.84 857.71L3732.46 843.703C3731.4 849.15 3736.62 856.776 3766.03 843.703C3814.19 830.63 3844.7 827.362 3853.93 827.362M3853.93 827.362C3853.93 826.973 3853.93 819.285 3853.93 791.645C3853.93 757.095 3851 724.88 3881.37 733.284C3911.74 741.688 3925.59 741.688 3947.7 741.688C3975.4 690.33 3986.32 649.011 3947.7 649.011C3909.07 649.011 3859.26 702.936 3881.37 649.011C3903.48 595.085 3898.15 634.77 3898.15 571.974C3898.15 509.177 3920.26 498.205 3898.15 487M3853.93 827.362L3917.33 873.117L3947.7 911.636C3958.71 911.636 3987.92 911.636 4016.69 911.636C4052.65 911.636 3986.32 883.155 4077.42 911.636C4168.53 940.116 4127.24 941.75 4185.04 958.091C4242.85 974.432 4264.95 974.432 4325.69 974.432C4386.42 974.432 4397.34 958.091 4433.31 958.091C4462.08 958.091 4526.27 968.985 4554.77 974.432C4576 958.558 4623.93 929.938 4645.88 942.45C4673.31 958.091 4737.24 952.255 4759.09 974.432C4780.93 996.609 4772.67 996.609 4803.04 996.609C4833.41 996.609 4852.59 974.432 4872.03 974.432C4884.49 974.432 4914.2 974.432 4935.43 974.432M3898.15 487H3917.33C3936.69 487 3983.66 487 4016.69 487C4049.72 487 4030.45 454.629 4016.69 438.444C4016.69 427.55 4016.69 403.1 4016.69 392.455C4016.69 381.81 4036.93 380.705 4047.06 381.483C4066.32 385.141 4111.52 392.455 4138.16 392.455C4171.46 392.455 4165.6 417.667 4185.04 438.444C4200.6 455.065 4285.29 492.525 4325.69 509.177C4262.29 463.656 4349.56 522.717 4367.24 532.055C4384.93 541.393 4418.66 571.118 4433.31 584.813C4450.8 588.237 4493.51 595.085 4524.41 595.085C4555.31 595.085 4557.53 605.356 4554.77 610.492C4571.29 618.818 4612.63 638.179 4645.88 649.011C4687.43 662.55 4676.24 681.226 4701.02 681.226C4720.84 681.226 4747.99 681.226 4759.09 681.226L4825.15 717.643C4834.38 735.152 4862.76 778.385 4902.4 811.255C4932.77 830.864 4918.92 827.362 4935.43 857.71C4951.95 888.058 4949.28 891.093 4949.28 911.636C4949.28 928.07 4949.28 939.026 4949.28 942.45V974.432C4945.45 974.432 4940.7 974.432 4935.43 974.432M4935.43 974.432L5001.76 996.609V1027.19L5021.2 1047.5C5025.73 1060.42 5028.18 1087.33 5001.76 1091.62C4968.73 1096.99 4998.83 1099.79 4935.43 1091.62M4935.43 1091.62C4872.03 1083.45 4847.26 1072.95 4825.15 1091.62C4803.04 1110.3 4761.75 1158.62 4731.38 1171.46C4659.73 1199.94 4648.54 1205.08 4623.77 1220.48C4598.99 1235.89 4585.14 1258.53 4554.77 1258.53C4524.41 1258.53 4538.26 1303.12 4494.04 1269.51C4449.82 1235.89 4471.66 1235.89 4419.45 1235.89C4367.24 1235.89 4323.03 1235.89 4300.92 1235.89C4278.81 1235.89 4297.99 1228.42 4256.7 1248.96C4077.42 1258.53 4096.87 1232.15 4044.39 1258.53C3991.92 1284.91 3978.06 1289.58 3947.7 1307.79C3872.69 1322.36 3807.05 1329.91 3783.61 1331.87M4935.43 1091.62C4934.54 1094.58 4926.69 1104.18 4902.4 1118.93C4872.03 1137.38 4847.26 1179.4 4825.15 1199.94C4780.93 1258.53 4786.79 1282.35 4759.09 1295.18C4731.38 1308.02 4700.75 1320.13 4673.31 1326C4645.88 1331.87 4643.21 1329.97 4623.77 1344.21C4604.32 1358.45 4571.29 1406.3 4554.77 1416.11C4538.26 1425.91 4524.41 1429.18 4524.41 1449.72C4524.41 1506.69 4554.77 1509.72 4554.77 1542.4C4554.77 1575.08 4543.59 1646.75 4524.41 1654.92C4505.23 1663.09 4524.41 1671.03 4471.93 1671.03C4419.45 1671.03 4400.28 1681.3 4383.76 1694.14C4367.24 1706.98 4356.06 1750.17 4347.8 1768.84C4341.19 1783.78 4345.05 1821.45 4347.8 1838.41C4363.43 1852.96 4385.3 1888.23 4347.8 1912.88C4300.92 1943.69 4273.21 1944.16 4273.21 1970.31C4273.21 1991.22 4273.21 2025.71 4273.21 2040.34C4273.21 2037.69 4275.98 2042.39 4287.06 2082.36C4300.92 2132.32 4300.92 2158.46 4287.06 2167.8C4273.21 2177.14 4297.99 2172.24 4256.7 2201.88C4215.41 2231.53 4198.89 2236.2 4138.16 2243.44M4138.16 2243.44L4195.96 2267.71C4194.99 2267.01 4196.92 2270.89 4212.48 2291.99C4231.92 2318.37 4256.7 2313.47 4256.7 2344.98C4269.91 2405.12 4282.45 2442.72 4287.06 2454C4282.45 2463.65 4269.91 2480.06 4256.7 2468.48C4280.99 2468.48 4327.55 2489.33 4347.8 2499.76L4375.5 2521.7L4392.02 2540.84V2589.4C4347.8 2627.92 4378.17 2632.82 4347.8 2659.43C4317.43 2686.05 4300.92 2695.85 4287.06 2712.66C4273.21 2729.47 4262.56 2744.17 4237.52 2753.75C4212.48 2763.32 4187.7 2772.89 4162.93 2775.46C4138.16 2778.02 4107.52 2816.54 4104.86 2775.46C4102.2 2734.37 4104.86 2693.52 4104.86 2676.48C4104.86 2659.43 4093.94 2632.59 4069.17 2627.92C4014.03 2627.92 4019.62 2659.43 3983.66 2659.43C3947.7 2659.43 3942.37 2676.48 3898.15 2676.48C3853.93 2676.48 3802.79 2707.76 3802.79 2741.61C3802.79 2768.69 3792.66 2786.82 3787.6 2792.5C3785.83 2815.14 3779.51 2868.13 3768.42 2898.95C3754.57 2937.47 3748.98 2944.94 3748.98 2966.65C3748.98 2984.02 3748.98 3038.31 3748.98 3063.29C3749.07 3078.62 3753.08 3113.62 3768.42 3130.99C3783.77 3148.36 3797.73 3186.63 3802.79 3203.59L3817.97 3247.01C3807.94 3271.99 3783.98 3325.82 3768.42 3341.33C3748.98 3360.7 3771.09 3370.51 3732.46 3392.22C3693.84 3413.93 3693.84 3443.11 3693.84 3392.22C3693.84 3341.33 3693.84 3336.42 3693.84 3321.95C3693.84 3307.48 3702.36 3281.1 3674.66 3283.43C3646.96 3285.77 3644.03 3290.43 3619.25 3341.33C3594.48 3392.22 3569.97 3363.27 3567.04 3392.22C3564.11 3421.16 3600.34 3469.49 3567.04 3474.39C3540.4 3478.31 3511.72 3463.11 3500.71 3455.01L3486.86 3392.22C3503.47 3389.73 3538.33 3380.4 3544.93 3363.04C3553.19 3341.33 3544.93 3341.33 3544.93 3321.95C3519.89 3283.43 3500.71 3275.96 3500.71 3247.01C3500.71 3218.07 3478.6 3208.5 3500.71 3189.12C3544.93 3130.99 3558.78 3121.19 3544.93 3106.71C3531.08 3092.24 3519.89 3063.29 3486.86 3063.29C3453.83 3063.29 3390.97 3070.3 3390.97 3080.1C3390.97 3089.91 3352.34 3082.44 3352.34 3106.71C3352.34 3130.99 3360.6 3106.71 3317.18 3106.71C3282.44 3106.71 3254.4 3122.9 3244.72 3130.99L3194.38 3148.03L3167.21 3203.59C3176.26 3204.37 3194.38 3208.82 3194.38 3220.4C3194.38 3234.87 3148.29 3247.01 3128.58 3247.01C3108.87 3247.01 3132.58 3247.01 3072.38 3247.01C2979.14 3220.4 2949.04 3249.35 2903.76 3266.39C2858.47 3247.01 2870.99 3235.11 2903.76 3203.59C2936.52 3172.08 2963.96 3165.07 2963.96 3148.03C2963.96 3134.4 2963.96 3097.06 2963.96 3080.1L2936.52 3031.78C2918.68 3031.78 2878.08 3031.78 2858.47 3031.78C2833.97 3031.78 2808.13 3000.26 2799.87 3031.78C2793.26 3056.99 2787.88 3108.43 2786.02 3130.99L2750.32 3148.03C2748.99 3130.99 2743.13 3093.55 2730.35 3080.1C2717.56 3066.65 2664.82 3092.24 2640.04 3106.71C2620.06 3118 2578.08 3138.65 2569.99 3130.99C2559.86 3121.42 2526.57 3080.1 2510.05 3080.1C2493.53 3080.1 2433.87 3096.91 2433.87 3080.1C2433.87 3066.65 2469.92 3042.28 2487.94 3031.78C2490.43 3026.1 2491.08 3012.82 2473.82 3005.17C2452.25 2995.59 2415.75 2990.93 2415.75 2966.65C2415.75 2942.37 2418.42 2913.65 2433.87 2898.95C2446.23 2887.18 2426.94 2861.67 2415.75 2850.39H2361.68M2361.68 2850.39L2415.75 2792.5C2415.75 2772.34 2415.75 2728.16 2415.75 2712.66C2415.75 2697.16 2390 2624.03 2377.13 2589.4C2364.25 2573.22 2346.23 2540.84 2377.13 2540.84C2415.75 2540.84 2437.6 2499.76 2473.82 2499.76C2510.05 2499.76 2489.01 2468.48 2529.5 2468.48C2569.99 2468.48 2581.44 2468.48 2603.82 2468.48C2626.19 2468.48 2626.19 2422.49 2626.19 2408.01C2626.19 2393.54 2604.61 2362.26 2587.3 2359.69C2569.99 2357.12 2532.16 2374.4 2510.05 2359.69C2487.94 2344.98 2465.83 2344.75 2487.94 2318.37C2505.63 2297.27 2523.01 2259.62 2529.5 2243.44L2614.84 2201.88" stroke="#355709" stroke-width="40"/>
</svg>
