<svg width="1100" height="948" viewBox="0 0 1100 948" fill="none" xmlns="http://www.w3.org/2000/svg">
<path d="M1036 0H1100L1036 208L960 260L844 324L864 416L792 520L768 572L792 684L736 724L648 792L560 812L480 856L396 948L316 856L196 900L96 876L40 792L0 724L40 592V520L96 480V416L176 396L248 364L284 324L368 296L436 232L500 180L560 144L648 88H736L792 56L844 20L940 0H1036Z" fill="#91D141"/>
<path d="M260.3 496C260.3 496 163 369.093 163 315.3C163 302.522 165.517 289.87 170.407 278.065C175.296 266.26 182.463 255.534 191.499 246.499C200.534 237.463 211.26 230.296 223.065 225.407C234.87 220.517 247.522 218 260.3 218C273.078 218 285.73 220.517 297.535 225.407C309.34 230.296 320.066 237.463 329.101 246.499C338.137 255.534 345.304 266.26 350.193 278.065C355.083 289.87 357.6 302.522 357.6 315.3C357.6 369.093 260.3 496 260.3 496ZM260.3 343.1C267.673 343.1 274.744 340.171 279.958 334.958C285.171 329.744 288.1 322.673 288.1 315.3C288.1 307.927 285.171 300.856 279.958 295.642C274.744 290.429 267.673 287.5 260.3 287.5C252.927 287.5 245.856 290.429 240.642 295.642C235.429 300.856 232.5 307.927 232.5 315.3C232.5 322.673 235.429 329.744 240.642 334.958C245.856 340.171 252.927 343.1 260.3 343.1Z" fill="#F24E1E"/>
</svg>
