<svg width="562" height="607" viewBox="0 0 562 607" fill="none" xmlns="http://www.w3.org/2000/svg">
<path d="M270 177H214L240 407L0 607L134 591H378L402 545L378 521L390 485L450 425L510 363L562 311L542 225L530 165L542 125L462 59H412L270 177Z" fill="#91D141"/>
<path d="M301.3 278C301.3 278 204 151.093 204 97.3C204 84.5224 206.517 71.8699 211.407 60.0649C216.296 48.2599 223.463 37.5336 232.499 28.4985C241.534 19.4634 252.26 12.2963 264.065 7.40652C275.87 2.51674 288.522 0 301.3 0C314.078 0 326.73 2.51674 338.535 7.40652C350.34 12.2963 361.066 19.4634 370.101 28.4985C379.137 37.5336 386.304 48.2599 391.193 60.0649C396.083 71.8699 398.6 84.5224 398.6 97.3C398.6 151.093 301.3 278 301.3 278ZM301.3 125.1C308.673 125.1 315.744 122.171 320.958 116.958C326.171 111.744 329.1 104.673 329.1 97.3C329.1 89.927 326.171 82.8559 320.958 77.6424C315.744 72.4289 308.673 69.5 301.3 69.5C293.927 69.5 286.856 72.4289 281.642 77.6424C276.429 82.8559 273.5 89.927 273.5 97.3C273.5 104.673 276.429 111.744 281.642 116.958C286.856 122.171 293.927 125.1 301.3 125.1Z" fill="#F24E1E"/>
</svg>
