<svg width="1735" height="1033" viewBox="0 0 1735 1033" fill="none" xmlns="http://www.w3.org/2000/svg">
<path d="M44.7509 601.018L0 534.158C32.764 522.974 105.484 500.604 134.253 500.604C170.213 500.604 187.794 500.604 214.698 458.848C241.601 417.092 250.658 417.092 250.658 337.805C232.811 337.805 165.418 258.518 214.698 229.189C250.392 224.964 277.296 224.964 295.409 191.658C313.522 158.353 304.199 145.677 380.382 49.7374C447.509 -0.220878 438.452 3.75584 483.203 3.75584C527.954 3.75584 546.067 -4.6948 586.29 3.75584C626.512 12.2065 635.569 41.2867 702.695 145.677C734.873 192.404 751.797 195.801 756.236 191.658C748.778 240.374 758.953 353.662 859.323 417.092C930.978 417.092 926.449 391.989 1038.33 391.989C1150.2 391.989 1096.66 417.092 1239.71 458.848C1293.25 458.848 1347.32 458.848 1378.49 417.092C1409.65 375.336 1445.61 391.989 1467.99 367.134C1490.36 342.279 1535.11 337.805 1557.49 308.476C1579.87 279.148 1611.3 308.476 1642.73 337.805C1667.88 361.268 1712.87 383.704 1732.23 391.989C1733.65 414.275 1735.64 467.199 1732.23 500.604C1727.97 542.36 1691.74 500.604 1642.73 458.848C1593.72 417.092 1548.7 479.726 1535.11 500.604C1524.25 517.307 1426.17 529.933 1378.49 534.158C1354.6 556.445 1303.26 605.989 1288.98 625.873C1271.14 650.728 1186.16 676.079 1132.36 759.592C1132.36 818.001 1186.16 843.104 1186.16 893.311C1186.16 943.518 1163.79 989.251 1132.36 914.189C1100.92 889.086 1056.17 939.292 980.257 939.292H859.323H733.861C697.9 939.292 689.11 972.598 662.473 1014.35C635.835 1056.11 626.512 1014.35 586.29 1014.35L546.067 939.292C538.609 914.189 506.644 854.786 438.452 818.001C353.212 772.019 393.701 788.92 353.479 788.92C313.256 788.92 254.92 788.92 214.698 843.104C174.475 897.288 116.406 868.207 71.3883 843.104C26.371 818.001 44.7509 814.024 44.7509 788.92V676.079V601.018Z" fill="#91D141"/>
<path d="M253.3 662C253.3 662 156 535.093 156 481.3C156 468.522 158.517 455.87 163.407 444.065C168.296 432.26 175.463 421.534 184.499 412.499C193.534 403.463 204.26 396.296 216.065 391.407C227.87 386.517 240.522 384 253.3 384C266.078 384 278.73 386.517 290.535 391.407C302.34 396.296 313.066 403.463 322.101 412.499C331.137 421.534 338.304 432.26 343.193 444.065C348.083 455.87 350.6 468.522 350.6 481.3C350.6 535.093 253.3 662 253.3 662ZM253.3 509.1C260.673 509.1 267.744 506.171 272.958 500.958C278.171 495.744 281.1 488.673 281.1 481.3C281.1 473.927 278.171 466.856 272.958 461.642C267.744 456.429 260.673 453.5 253.3 453.5C245.927 453.5 238.856 456.429 233.642 461.642C228.429 466.856 225.5 473.927 225.5 481.3C225.5 488.673 228.429 495.744 233.642 500.958C238.856 506.171 245.927 509.1 253.3 509.1Z" fill="#F24E1E"/>
</svg>
