<svg width="588" height="1360" viewBox="0 0 588 1360" fill="none" xmlns="http://www.w3.org/2000/svg">
<path d="M588 0H536L492 56L472 90L450 118L440 154L430 204V258L420 320V372V422V472L390 564L366 650L352 744L318 834L270 856L246 892L160 950L110 976L90 1030L52 1098L24 1148L0 1188H52H100H132L144 1238L132 1294L110 1328L100 1360H144L214 1328L246 1282H300L338 1272H412L452 1238L472 1200L502 1130L516 1074L536 1004L550 940V868L536 808V744L516 714L492 668L472 600L460 550V472L472 422L460 372L450 320L460 258L472 204L492 154V118L516 90L556 56L588 0Z" fill="#91D141"/>
<path d="M486.3 988C486.3 988 389 861.093 389 807.3C389 794.522 391.517 781.87 396.407 770.065C401.296 758.26 408.463 747.534 417.499 738.499C426.534 729.463 437.26 722.296 449.065 717.407C460.87 712.517 473.522 710 486.3 710C499.078 710 511.73 712.517 523.535 717.407C535.34 722.296 546.066 729.463 555.101 738.499C564.137 747.534 571.304 758.26 576.193 770.065C581.083 781.87 583.6 794.522 583.6 807.3C583.6 861.093 486.3 988 486.3 988ZM486.3 835.1C493.673 835.1 500.744 832.171 505.958 826.958C511.171 821.744 514.1 814.673 514.1 807.3C514.1 799.927 511.171 792.856 505.958 787.642C500.744 782.429 493.673 779.5 486.3 779.5C478.927 779.5 471.856 782.429 466.642 787.642C461.429 792.856 458.5 799.927 458.5 807.3C458.5 814.673 461.429 821.744 466.642 826.958C471.856 832.171 478.927 835.1 486.3 835.1Z" fill="#F24E1E"/>
</svg>
