<svg width="564" height="800" viewBox="0 0 564 800" fill="none" xmlns="http://www.w3.org/2000/svg">
<path d="M260 60L204 0L80 60L56 132L0 208L56 288L104 356V456L80 568L136 628L184 700V800L280 764V660V596L316 528L356 488H412L468 420L528 356L564 264V184L528 104H444L356 84L260 60Z" fill="#91D141"/>
<path d="M168.3 612C168.3 612 71 485.093 71 431.3C71 418.522 73.5167 405.87 78.4065 394.065C83.2963 382.26 90.4634 371.534 99.4985 362.499C108.534 353.463 119.26 346.296 131.065 341.407C142.87 336.517 155.522 334 168.3 334C181.078 334 193.73 336.517 205.535 341.407C217.34 346.296 228.066 353.463 237.101 362.499C246.137 371.534 253.304 382.26 258.193 394.065C263.083 405.87 265.6 418.522 265.6 431.3C265.6 485.093 168.3 612 168.3 612ZM168.3 459.1C175.673 459.1 182.744 456.171 187.958 450.958C193.171 445.744 196.1 438.673 196.1 431.3C196.1 423.927 193.171 416.856 187.958 411.642C182.744 406.429 175.673 403.5 168.3 403.5C160.927 403.5 153.856 406.429 148.642 411.642C143.429 416.856 140.5 423.927 140.5 431.3C140.5 438.673 143.429 445.744 148.642 450.958C153.856 456.171 160.927 459.1 168.3 459.1Z" fill="#F24E1E"/>
</svg>
