<svg width="588" height="1360" viewBox="0 0 588 1360" fill="none" xmlns="http://www.w3.org/2000/svg">
<path d="M588 0H536L492 56L472 90L450 118L440 154L430 204V258L420 320V372V422V472L390 564L366 650L352 744L318 834L270 856L246 892L160 950L110 976L90 1030L52 1098L24 1148L0 1188H52H100H132L144 1238L132 1294L110 1328L100 1360H144L214 1328L246 1282H300L338 1272H412L452 1238L472 1200L502 1130L516 1074L536 1004L550 940V868L536 808V744L516 714L492 668L472 600L460 550V472L472 422L460 372L450 320L460 258L472 204L492 154V118L516 90L556 56L588 0Z" fill="#91D141"/>
</svg>
