<svg width="470" height="1022" viewBox="0 0 470 1022" fill="none" xmlns="http://www.w3.org/2000/svg">
<path d="M196 104L176 122L124 104L84 74L74 104L46 160L28 206V282L0 344V390L18 454L28 496L58 532L84 578L92 634V672L102 746V810L92 852L84 880L74 916V942L92 960L112 992H140L166 1022V960L176 916L210 886H256L282 866L294 826V784L282 746V714L266 672L244 634V598V532L234 496L322 454L256 400L266 358L282 304L322 264L360 226L408 192L458 160V122L470 84L438 58L396 24L360 0H322H294L266 12L244 46L224 74L196 104Z" fill="#91D141"/>
</svg>
