<svg width="713" height="208" viewBox="0 0 713 208" fill="none" xmlns="http://www.w3.org/2000/svg">
<path d="M196.233 17.4874C178.524 12.4787 129.123 -1.22924 118.497 0.0888287V33.8314V40.0263L51.3859 67.4422C40.2009 73.2856 17.8311 86.4751 17.8311 92.4855C17.8311 99.9985 1.98506 113.706 0.120879 121.219C-1.37047 127.23 11.3063 145.34 17.8311 153.644C3.10405 154.083 -13.6363 160.182 37.2186 181.06C100.787 207.158 83.2638 181.06 92.0255 181.06C100.787 181.06 134.342 207.289 150.188 207.289H185.607L273.97 201.094C206.859 197.404 312.111 200.356 330.454 197.404C353.384 193.713 362.145 191.077 376.313 191.077H429.256C455.727 191.077 454.049 184.882 471.759 181.06C489.469 177.237 506.992 173.679 533.464 166.166C559.935 158.653 570.561 167.352 598.896 166.166C627.232 164.979 646.619 157.335 646.619 146.131C646.619 137.168 640.654 125.789 637.671 121.219C647.676 116.211 672.979 103.452 694.156 92.4855C715.333 81.5192 713.668 77.8989 710.188 77.4595C690.738 73.725 649.006 64.5161 637.671 57.5567C623.504 48.8574 630.587 40.0263 618.284 40.0263C608.441 40.0263 582.367 35.8964 570.561 33.8314C565.279 35.8964 552.255 41.5289 542.412 47.5393C530.108 55.0523 496.366 47.5393 471.759 47.5393C447.152 47.5393 471.759 30.009 471.759 23.8141C471.759 18.8581 436.34 10.9409 418.63 7.60183L362.145 47.5393C353.943 45.035 336.121 40.0263 330.454 40.0263C324.787 40.0263 321.009 25.0003 319.828 17.4874H281.053C276.878 17.4874 263.903 32.5133 257.938 40.0263C243.273 34.1829 210.401 21.4943 196.233 17.4874Z" fill="#91D141"/>
</svg>
